# xmcd
#
# Track frame offsets:
#	150
#	10789
#	19698
#	35510
#	45713
#	57776
#	67877
#	84006
#	93499
#	106094
#	120035
#	128697
#	138364
#	155836
#
# Disc length: 2319 seconds
#
# Revision: 1
# Processed by: cddbd v1.5.2PL0 Copyright (c) Steve Scherf et al.
# Submitted via: audiograbber 1.83.01
#
DISCID=9e090d0e
DTITLE=Elly Kelly - Home Sweet Home
DYEAR=2008
DGENRE=Country
TTITLE0=Elly's Reel
TTITLE1=Joe's Reel
TTITLE2=Faded Love
TTITLE3=Maple Sugar
TTITLE4=Grand North
TTITLE5=Liberty 2 Step
TTITLE6=Please Release Me
TTITLE7=Old and in the Way
TTITLE8=Stop Tune
TTITLE9=Mother's Favorite Waltz
TTITLE10=Wotton's Reel
TTITLE11=Home Sweet Home
TTITLE12=Medley (Dedicated to Don and Judy)
TTITLE13=Kitchen Party (Recorded Live)
EXTD=
EXTT0=
EXTT1=
EXTT2=
EXTT3=
EXTT4=
EXTT5=
EXTT6=
EXTT7=
EXTT8=
EXTT9=
EXTT10=
EXTT11=
EXTT12=
EXTT13=
PLAYORDER=
